<svg xmlns="http://www.w3.org/2000/svg" width="24" height="24" viewBox="0 0 24 24" fill="currentColor" aria-hidden="true">
  <path d="M12 .5a12 12 0 0 0-3.8 23.4c.6.1.8-.3.8-.6v-2.1c-3.3.7-4-1.6-4-1.6-.6-1.5-1.4-1.9-1.4-1.9-1.1-.8.1-.8.1-.8 1.2.1 1.9 1.2 1.9 1.2 1.1 1.9 2.9 1.3 3.6 1 .1-.8.4-1.3.7-1.6-2.6-.3-5.4-1.3-5.4-5.9 0-1.3.5-2.4 1.2-3.2-.1-.3-.5-1.6.1-3.3 0 0 1-.3 3.4 1.2a11.6 11.6 0 0 1 6.2 0c2.4-1.5 3.4-1.2 3.4-1.2.6 1.7.2 3 .1 3.3.8.8 1.2 1.9 1.2 3.2 0 4.6-2.8 5.6-5.4 5.9.4.3.8 1 .8 2.1v3.1c0 .3.2.7.8.6A12 12 0 0 0 12 .5z"/>
</svg>